<svg xmlns="http://www.w3.org/2000/svg" width="120" height="28" viewBox="0 0 120 28">
  <path fill="#133A51" fill-rule="evenodd" d="M109.902654,15.8184347 L109.902654,8.89613375 C110.51258,8.70404048 111.146247,8.59989352 111.796034,8.59989352 C112.218088,8.59989352 112.574489,8.65514927 112.864651,8.76913232 C113.148365,8.88311538 113.359685,9.03586425 113.484836,9.23142909 C113.613797,9.43017619 113.699673,9.6190872 113.745689,9.79787281 C113.785256,9.98360154 113.811635,10.1950777 113.811635,10.4360622 L113.811635,15.8184347 L115.114433,15.8184347 L115.114433,10.4360622 C115.114433,9.88581912 115.019178,9.41050399 114.824564,9.01011681 C115.572831,8.73962402 116.259254,8.59989352 116.889111,8.59989352 C117.26808,8.59989352 117.588431,8.65514927 117.845767,8.76913232 C118.102809,8.88311538 118.290975,9.03586425 118.406453,9.24097589 C118.525449,9.44637683 118.601067,9.63528784 118.640635,9.81407344 C118.677271,9.99980218 118.696616,10.2049138 118.696616,10.4360622 L118.696616,15.8184347 L120,15.8184347 L120,10.5630636 C120,9.63210557 119.729182,8.90596985 119.201322,8.38783875 C118.670823,7.87665078 117.925195,7.61628339 116.961798,7.61628339 C116.031228,7.61628339 115.065193,7.80519439 114.062229,8.17983413 C113.52118,7.80519439 112.815119,7.61628339 111.934374,7.61628339 C110.779881,7.61628339 109.668472,7.8347027 108.599269,8.27067342 L108.599269,15.8184347 L109.902654,15.8184347 L109.902654,15.8184347 Z M100.967668,13.4511166 C101.144284,13.9463932 101.371361,14.3430195 101.642073,14.6328952 C101.915753,14.932607 102.230099,15.1735915 102.580955,15.3558487 C102.931218,15.5415774 103.275841,15.6653966 103.61334,15.7273061 C103.947277,15.7889264 104.307929,15.8184347 104.695593,15.8184347 C105.551362,15.8184347 106.366465,15.7111055 107.137637,15.4895039 L107.137637,14.5061831 C106.422863,14.7274954 105.647833,14.8348246 104.82234,14.8348246 C103.843979,14.8348246 103.132174,14.5938401 102.691377,14.1023243 C102.246721,13.6139908 102.026175,12.819581 102.026175,11.7159126 C102.026175,10.631627 102.246721,9.83721721 102.691377,9.34222988 C103.132174,8.85042481 103.843979,8.59989352 104.82234,8.59989352 C105.617556,8.59989352 106.389321,8.71387658 107.137637,8.92853503 L107.137637,7.94174262 C106.332626,7.72708418 105.521085,7.61628339 104.695593,7.61628339 C104.201069,7.61628339 103.746618,7.67848226 103.332239,7.78899375 C102.921719,7.90615908 102.510606,8.10808845 102.096821,8.38494578 C101.685707,8.66498537 101.351473,9.09140929 101.090557,9.65467074 C100.833203,10.2242967 100.706456,10.9113773 100.706456,11.7159126 C100.706456,12.3734849 100.793428,12.9532363 100.967668,13.4511166 L100.967668,13.4511166 Z M94.7529116,11.1425257 C94.4334147,10.8138842 94.2752741,10.3906426 94.2752741,9.85978239 C94.2752741,9.24415816 94.5252007,8.71676955 95.0221307,8.27732726 C95.5190608,7.8347027 96.2855024,7.61628339 97.3153169,7.61628339 C98.0358656,7.61628339 98.762845,7.76295702 99.4866091,8.05572568 L99.4866091,9.16286568 C98.8385538,8.78851523 98.1574673,8.59989352 97.4465649,8.59989352 C96.2004397,8.59989352 95.5748924,9.01966361 95.5748924,9.85978239 C95.5748924,10.1496581 95.7230945,10.3776242 96.0253449,10.5532275 C96.3313954,10.7291202 96.7002929,10.8755045 97.1375914,10.9894876 C97.5751821,11.1002883 98.0227115,11.2405974 98.4763795,11.4031824 C98.9335551,11.5692389 99.3191144,11.8394424 99.6415344,12.2239183 C99.9604466,12.6081048 100.121803,13.1028029 100.121803,13.6955726 C100.121803,14.362981 99.8420603,14.8805335 99.2895909,15.254884 C98.7333216,15.632706 97.9665877,15.8184347 96.9861738,15.8184347 C96.0317758,15.8184347 95.163902,15.6454351 94.3872295,15.2910461 L94.3872295,14.1055066 C95.2097949,14.5938401 96.0615916,14.8348246 96.9335577,14.8348246 C98.1937139,14.8348246 98.8215997,14.4541096 98.8215997,13.6955726 C98.8215997,13.28506 98.6704745,12.9694369 98.364424,12.7379992 C98.0621736,12.5068508 97.6967839,12.3312475 97.2591931,12.2137929 C96.8218946,12.0998098 96.3775806,11.9730977 95.920405,11.8362602 C95.462937,11.7028942 95.0712391,11.4714565 94.7529116,11.1425257 Z M59.2574722,13.5449731 C58.843452,13.0385214 58.6387582,12.4065589 58.6387582,11.6390919 C58.6387582,10.3457734 59.0687022,9.35315139 59.932354,8.65858055 C60.7890572,7.96694907 61.8608772,7.61628339 63.1486825,7.61628339 C64.3441295,7.61628339 65.445481,7.93726153 66.4492628,8.5724573 C66.4492628,8.5724573 67.3485261,9.26379484 67.270644,9.95836568 C67.1727847,10.8719189 66.4492628,10.9512816 66.4492628,10.9512816 C65.6183272,10.5703405 64.6767933,10.3786942 63.6269772,10.3786942 C62.3076136,10.3786942 61.652709,10.7161328 61.652709,11.3845433 C61.652709,11.7219819 61.8385838,11.9797638 62.2135182,12.171704 C62.5878734,12.3636442 63.0435851,12.5326574 63.5818113,12.6746285 C64.1159842,12.8201269 64.6828733,13.0155943 65.2662653,13.2604431 C65.8499469,13.5117584 66.3453234,13.9217991 66.7587645,14.5073197 C67.1727847,15.0931342 67.3812424,15.8373802 67.3812424,16.7371184 C67.3812424,17.8223303 66.9672222,18.7223624 66.1365762,19.436333 C65.309115,20.1508915 64.2170282,20.5053783 62.8548151,20.5053783 C61.4572799,20.5053783 60.1700537,20.1479521 58.9937153,19.4169332 C58.9937153,19.4169332 58.319123,19.2117659 58.319123,17.8320301 C58.319123,16.7106642 58.9937153,16.6942038 58.9937153,16.6942038 C60.0724839,17.3952412 61.2256603,17.7429675 62.4607721,17.7429675 C63.2494371,17.7429675 63.7676861,17.653317 64.008281,17.4616707 C64.243375,17.2697305 64.3672915,16.9819671 64.3672915,16.5983806 C64.3672915,16.2477149 64.1776529,15.9664182 63.8030081,15.7480237 C63.4251785,15.5393291 62.9691773,15.35121 62.4312406,15.1889574 C61.8941725,15.029938 61.3400225,14.841525 60.7534457,14.6231305 C60.1700537,14.4082633 59.6712028,14.0476037 59.2574722,13.5449731 Z M81.7052375,9.44019901 C81.7052375,8.59098035 80.9990998,7.90921736 80.1064756,7.90921736 C79.2138513,7.90921736 78.4896468,8.60088208 78.4896468,9.44980951 L78.4896468,18.9653687 C78.4896468,19.8172084 79.2138513,20.5053783 80.1064756,20.5053783 C80.9990998,20.5053783 81.7052375,19.8271101 81.7052375,18.9749792 L81.7052375,9.44019901 L81.7052375,9.44019901 Z M32.092606,20.1608341 C32.7137566,20.3149784 33.3505008,20.3936532 34.010347,20.3936532 C35.8073808,20.3936532 37.1891593,19.8557507 38.1574149,18.783151 C39.126248,17.7076374 39.6102314,16.1626975 39.6102314,14.1527021 C39.6102314,13.0439702 39.4641123,12.0666544 39.1811149,11.2207546 C38.8984062,10.3745635 38.5668949,9.73176127 38.1802279,9.29555322 C37.7964487,8.85613991 37.3321019,8.50181194 36.795273,8.22645015 C36.256134,7.95108836 35.7845678,7.78383157 35.3912591,7.71797785 C34.9918861,7.64921025 34.5919356,7.61628339 34.1925627,7.61628339 C32.4529946,7.61628339 31.1728642,8.0262665 30.3342677,8.83982218 C29.4991364,9.65629174 29.0864799,10.6269056 29.0864799,11.7583658 L29.0864799,23.3579447 C29.0864799,24.2108378 29.7685615,24.899388 30.6103346,24.899388 C31.4521077,24.899388 32.1185956,24.220745 32.1185956,23.3681433 L32.092606,20.1608341 L32.092606,20.1608341 Z M32.0097442,11.5336931 C32.0097442,10.6795932 32.7340386,10.2526892 34.1871186,10.2526892 C35.1135207,10.2526892 35.760565,10.5678337 36.1309462,11.1855752 C36.5016268,11.8062347 36.6869671,12.8146971 36.6869671,14.2100868 C36.6869671,15.5698769 36.4378506,16.5223135 35.9459053,17.0609771 C35.4473728,17.6025588 34.7329593,17.8689726 33.7960775,17.8689726 C33.2768851,17.8689726 32.6804426,17.8260779 32.0097442,17.7306592 L32.0097442,11.5336931 L32.0097442,11.5336931 Z M45.1644336,5.35373567 C45.1644336,4.49317764 44.4550581,3.80814169 43.5636739,3.80814169 C42.6716778,3.80814169 41.9488429,4.50317387 41.9488429,5.3637319 L41.9488429,18.9506702 C41.9488429,19.8106402 42.6716778,20.5053783 43.5636739,20.5053783 C44.4550581,20.5053783 45.1644336,19.8206364 45.1644336,18.9603724 L45.1644336,5.35373567 L45.1644336,5.35373567 Z M75.0086116,10.4666792 C75.7650365,10.4666792 76.3817227,9.86019189 76.3817227,9.11206453 C76.3817227,8.36102276 75.7650365,7.75424396 75.0086116,7.75424396 L73.3826679,7.75424396 L73.3826679,5.28749288 C73.3492135,4.46417391 72.662954,3.80814169 71.8197843,3.80814169 C70.9801674,3.80814169 70.2903552,4.46417391 70.2604535,5.28749288 L70.2604535,7.75424396 L69.6339974,7.75424396 C68.8740197,7.75424396 68.2582217,8.36102276 68.2582217,9.11206453 C68.2582217,9.86019189 68.8740197,10.4666792 69.6339974,10.4666792 L70.2604535,10.4666792 L70.2604535,16.2890745 C70.2604535,17.5291531 70.6672354,18.4474816 71.3668175,19.1524758 C72.0595903,19.8612588 73.0158536,20.2124444 74.2320547,20.2124444 L74.2486339,20.2124444 C74.9286762,20.2124444 75.5551323,20.0775075 76.1315548,19.8216229 C76.1315548,19.8216229 77.0280146,19.6316038 77.0280146,18.2082091 C77.0280146,17.1123934 76.1315548,17.2796802 76.1315548,17.2796802 C75.7416481,17.4504642 75.2954905,17.5291531 74.7921941,17.5291531 C74.2521866,17.5291531 73.9087607,17.4437611 73.6958959,17.2700627 C73.4827351,17.0995701 73.3826679,16.7614993 73.3826679,16.2564331 L73.3826679,10.4666792 L75.0086116,10.4666792 L75.0086116,10.4666792 Z M78.4896468,5.27281158 C78.4896468,6.08161175 79.1424033,6.73748146 79.9512789,6.73748146 C80.759866,6.73748146 81.4129111,6.08161175 81.4129111,5.27281158 C81.4129111,4.46429995 80.759866,3.80814169 79.9512789,3.80814169 C79.1424033,3.80814169 78.4896468,4.46429995 78.4896468,5.27281158 L78.4896468,5.27281158 Z M84.7320378,18.8411125 C85.7706515,19.9560119 87.2290297,20.5053783 89.0971145,20.5053783 C90.2984277,20.5053783 91.4840625,20.2008606 92.6492859,19.5856525 C92.6492859,19.5856525 93.3982948,19.3211101 93.3982948,18.0965726 C93.3982948,16.8729169 92.6492859,17.1309927 92.6492859,17.1309927 C91.6269421,17.5442668 90.6081481,17.7429675 89.5929039,17.7429675 C88.4572622,17.7429675 87.6186208,17.4913583 87.0725425,16.9819671 C86.5229144,16.472576 86.2504668,15.4996477 86.2504668,14.0708247 C86.2504668,12.6184868 86.5229144,11.6390919 87.0725425,11.1364613 C87.6186208,10.6335367 88.4572622,10.3786942 89.5929039,10.3786942 C90.6548872,10.3786942 91.677231,10.5838616 92.6492859,10.9941963 C92.6492859,10.9941963 93.3982948,11.2190573 93.3982948,10.0312618 C93.3982948,8.84699355 92.6492859,8.53600923 92.6492859,8.53600923 C91.4840625,7.92403441 90.2984277,7.61628339 89.0971145,7.61628339 C87.2290297,7.61628339 85.7706515,8.17241036 84.7320378,9.28054919 C83.6898743,10.388688 83.1668697,11.9865243 83.1668697,14.0708247 C83.1668697,16.141604 83.6898743,17.736207 84.7320378,18.8411125 L84.7320378,18.8411125 Z M52.8176733,14.3537648 C53.2855802,14.3630275 53.8546563,14.4073758 54.5188794,14.4957919 L54.5188794,15.8955723 C54.5188794,17.0197192 53.8106959,17.5760386 52.3910168,17.5760386 L52.36723,17.5760386 C50.8761906,17.5760386 50.1339829,16.9851948 50.1339829,15.7973323 C50.137295,14.8340184 51.0318585,14.3537648 52.8176733,14.3537648 L52.8176733,14.3537648 Z M48.2881897,9.15797787 C48.2881897,8.58245112 48.7012391,8.0430785 49.2411804,7.92080111 C49.2608356,7.90081346 49.2966775,7.90081346 49.3192233,7.89434687 C50.109769,7.70887324 50.956101,7.61628339 51.8599534,7.61628339 C53.5714055,7.61628339 54.8758782,8.07305998 55.7837774,8.98279199 C56.6908094,9.89575731 57.1498173,11.2093574 57.1498173,12.9262378 L57.1498173,16.3003295 C57.1498173,17.4516769 56.7335885,18.4407717 55.9066227,19.2646744 C55.0808131,20.0950436 53.8087137,20.5053783 52.0943712,20.5053783 C50.3149929,20.5053783 49.0102312,20.0950436 48.1708363,19.2646744 C47.3349101,18.4343051 46.9183922,17.4219894 46.9183922,16.2344878 C46.9183922,15.976118 46.9409379,15.7112817 46.9868965,15.4437999 C47.0357456,15.1757302 47.1559895,14.8347644 47.3577449,14.4211964 C47.5560317,14.0146829 47.8323614,13.6537295 48.1803749,13.3462724 C48.5289666,13.0385214 49.0426045,12.7704517 49.7195545,12.5523512 C50.3962154,12.3307234 51.1962997,12.2216731 52.1169169,12.2216731 C52.7386588,12.2216731 53.4023125,12.2778149 54.1145263,12.3868652 C54.1145263,10.8451707 53.3109734,10.0709432 51.7041567,10.0709432 C51.1312639,10.0709432 50.5231074,10.1570664 49.9796975,10.2531835 C49.8270802,10.329019 49.6545187,10.3722276 49.4721295,10.3722276 C48.8315996,10.3722276 48.2881897,9.80963405 48.2881897,9.15797787 Z M13.6900869,0.337723102 L23.5015295,6.02521405 C24.3024398,6.45036504 24.8477467,7.2945266 24.8477467,8.26646737 L24.8477467,8.72758367 L24.8477467,19.8215683 C24.8477467,20.8163163 24.2765006,21.6765599 23.4461536,22.0920617 L13.7638242,27.7324761 C13.3753186,27.9778005 13.0746965,27.9991228 12.5821425,28 L12.5821425,24.8742338 C12.9654019,24.8730642 13.1637244,24.8836136 13.4662517,24.6932606 L20.9950417,20.306369 C21.6417738,19.9835584 22.0856553,19.314545 22.0856553,18.5411445 L22.0856553,9.91326954 L22.0856553,9.55478597 C22.0856553,8.7989295 21.6615926,8.14248936 21.0393424,7.81119908 L13.4085442,3.38921946 C13.1200066,3.22196611 12.7851282,3.1260586 12.4278079,3.1260586 C12.0465886,3.1260586 11.6910171,3.23512415 11.3876155,3.42021396 L3.79703763,7.8176319 C3.18090795,8.15038419 2.76179986,8.80331552 2.76179986,9.55478597 L2.76179986,17.8621895 L2.76179986,18.5411445 L2.76179986,22.8862227 L1.3762367,22.0783188 C0.559587984,21.6584311 0,20.8060823 0,19.8215683 L0,8.26646737 C0,7.30037461 0.538894887,6.46089148 1.33077017,6.03310888 C1.33077017,6.03310888 11.0920831,0.38012124 11.0938318,0.38304525 C11.481463,0.140644859 11.9387513,0 12.4289737,0 C12.8885937,0 13.3187769,0.123685603 13.6900869,0.337723102 Z M16.3702801,12.5758375 L16.3702801,16.2736454 C16.3702801,16.6055524 16.1825899,16.892093 15.9086948,17.030534 L15.9086948,17.0308267 L12.7194021,18.9110481 L12.7194021,18.9107554 C12.5908155,18.9930005 12.4388758,19.0407085 12.2756919,19.0407085 C12.1001107,19.0407085 11.9372152,18.9853906 11.8028624,18.8908527 L8.63865277,17.0264364 L8.63865277,17.0261437 C8.36937059,16.8862393 8.18514007,16.6020402 8.18514007,16.2736454 L8.18514007,12.4221768 C8.18514007,12.1002211 8.36245114,11.8204123 8.62366061,11.6778737 L11.838613,9.79267664 C11.838613,9.79267664 11.8389013,9.79326201 11.8397662,9.79443276 C11.9671995,9.71335846 12.117986,9.66682122 12.27944,9.66682122 C12.4308031,9.66682122 12.5726519,9.7077974 12.695184,9.77950572 L12.695184,9.77921304 L15.9274349,11.6749469 L15.9271466,11.6749469 C16.1906626,11.8169001 16.3702801,12.0981723 16.3702801,12.4221768 L16.3702801,12.5758375 Z M18.5494593,9.79424264 L18.5494593,9.79395026 L13.123754,6.63254207 L13.123754,6.63283444 C12.9185291,6.51354705 12.6805494,6.44454748 12.4269169,6.44454748 C12.1556027,6.44454748 11.9025499,6.52319529 11.6886291,6.65797835 C11.6874696,6.65622412 11.6866,6.65505464 11.6866,6.65505464 L6.28988123,9.7986282 C5.85218409,10.0363259 5.55420219,10.5029501 5.55420219,11.0403281 L5.55420219,24.5560571 L8.31923069,26.0711239 L8.31923069,19.8918617 L11.6268877,21.8285275 C11.8524032,21.9855308 12.1257465,22.0779201 12.4205399,22.0779201 C12.6941731,22.0779201 12.9492548,21.9986875 13.1649149,21.8615655 L13.1652047,21.8615655 L18.5187336,18.7261783 C18.5187336,18.7261783 18.5184437,18.7258859 18.5184437,18.7255936 C18.9778808,18.4949128 19.2935445,18.0168861 19.2935445,17.4640125 L19.2935445,11.2964451 L19.2935445,11.0403281 C19.2935445,10.5000264 18.9917943,10.0304784 18.5494593,9.79424264 L18.5494593,9.79424264 Z"/>
</svg>
